<?xml version="1.0" encoding="UTF-8"?>
<svg width="40px" height="40px" viewBox="0 0 40 40" version="1.1" xmlns="http://www.w3.org/2000/svg" xmlns:xlink="http://www.w3.org/1999/xlink">
    <!-- Generator: Sketch 48.2 (47327) - http://www.bohemiancoding.com/sketch -->
    <title>Page 1</title>
    <desc>Created with Sketch.</desc>
    <defs></defs>
    <g id="Desktop" stroke="none" stroke-width="1" fill="none" fill-rule="evenodd" transform="translate(-585.000000, -2353.000000)">
        <g id="Page-1" transform="translate(585.000000, 2353.000000)">
            <path d="M20,40 C8.95432624,40 0,31.0459574 0,20 C0,8.95432624 8.95432624,0 20,0 C31.0456738,0 40,8.95432624 40,20 C40,31.0459574 31.0456738,40 20,40 Z" id="Fill-1" fill="#59B9C6"></path>
            <path d="M32.1530213,13.460227 L29.0043688,13.3345532 L29.9490496,10.4588085 L27.2506099,12.3288794 C26.3864965,11.4100142 25.1025248,10.8270355 23.6673475,10.8270355 C21.0659291,10.8270355 18.9569929,12.7407943 18.9569929,15.1019291 C18.9569929,15.3322837 18.9782695,15.5578156 19.0165674,15.7779574 C19.0681986,15.9657589 19.1308936,16.1575319 19.1666383,16.3671773 C19.1788369,16.4372482 19.1876312,16.504766 19.1984113,16.5739858 L10.6803972,16.5739858 C9.98791489,16.5739858 9.42110638,17.1407943 9.42110638,17.8332766 L9.42110638,18.0015035 C9.42110638,18.6939858 9.98791489,19.2605106 10.6803972,19.2605106 L12.5845106,19.2605106 C12.2020993,19.4775319 11.9399716,19.883773 11.9399716,20.3521418 L11.9399716,20.5200851 C11.9399716,21.2128511 12.5067801,21.7793759 13.1992624,21.7793759 L15.1030922,21.7793759 C14.7209645,21.9963972 14.4585532,22.4023546 14.4585532,22.8710071 L14.4585532,23.0389504 C14.4585532,23.7314326 15.0253617,24.2982411 15.717844,24.2982411 L17.0531631,24.2982411 C13.6906099,27.398383 7.84692199,27.0057589 7.84692199,27.0057589 C10.9952908,29.3867518 20.1354326,31.3331348 25.203234,26.8352624 C30.7901844,21.8769645 28.908766,15.5050496 28.908766,15.5050496 L32.1530213,13.460227 Z" id="Fill-3" fill="#FFFFFF"></path>
        </g>
    </g>
</svg>