<svg id="レイヤー_1" data-name="レイヤー 1" xmlns="http://www.w3.org/2000/svg" viewBox="0 0 800 800"><title>01_clock</title><path d="M400,15.6C188.22852,15.6,16.05,187.5733,16.05,399.55,16.05,611.32147,188.02332,783.5,400,783.5S783.95,611.32147,783.95,399.55C783.95,187.5733,611.77148,15.6,400,15.6Zm0,693.78149c-170.8653,0-309.83148-139.15894-309.83148-309.83148C90.16852,228.45917,228.90918,89.71851,400,89.71851S709.83148,228.45917,709.83148,399.55,571.09088,709.38147,400,709.38147ZM544.31519,416.94281a37.0914,37.0914,0,0,1-37.38135,37.38141H382.60718a37.09146,37.09146,0,0,1-37.38141-37.38141V237.21674a37.38138,37.38138,0,0,1,74.76276,0V379.56152h86.94531A37.0913,37.0913,0,0,1,544.31519,416.94281Z"/></svg>