<?xml version="1.0" encoding="UTF-8"?>
<svg width="46px" height="50px" viewBox="0 0 46 50" version="1.1" xmlns="http://www.w3.org/2000/svg" xmlns:xlink="http://www.w3.org/1999/xlink">
    <!-- Generator: Sketch 49.1 (51147) - http://www.bohemiancoding.com/sketch -->
    <title>Group 17</title>
    <desc>Created with Sketch.</desc>
    <defs>
        <polygon id="path-1" points="0.00769113879 0.0183189655 10.0827032 0.0183189655 10.0827032 12.8220905 0.00769113879 12.8220905"></polygon>
    </defs>
    <g id="Page-1" stroke="none" stroke-width="1" fill="none" fill-rule="evenodd">
        <g id="Group-20" transform="translate(-7.000000, -5.000000)">
            <rect id="Rectangle-8" fill="#FFFFFF" x="0" y="0" width="60" height="60"></rect>
            <g id="Group-17" transform="translate(7.000000, 5.000000)">
                <circle id="Oval-8" fill="#FFFFFF" cx="28.25" cy="31.25" r="1"></circle>
                <g id="Group-18" transform="translate(0.000000, 8.000000)">
                    <circle id="Oval-5" fill="#5DB9C5" cx="21" cy="21" r="21"></circle>
                    <circle id="Oval-8" fill="#FFFFFF" cx="25.375" cy="18.375" r="5.25"></circle>
                    <circle id="Oval-9" fill="#FFFFFF" cx="19.25" cy="31.5" r="2.625"></circle>
                    <circle id="Oval-9" fill="#FFFFFF" cx="13.125" cy="10.5" r="2.625"></circle>
                </g>
                <g id="Group-16" transform="translate(28.000000, 0.000000)">
                    <path d="M11.6747845,14.2423491 C11.6747845,17.4567888 9.07025862,20.0613147 5.85689655,20.0613147 C2.6424569,20.0613147 0.0368534483,17.4567888 0.0368534483,14.2423491 C0.0368534483,11.0289871 2.6424569,8.42553879 5.85689655,8.42553879 C9.07025862,8.42553879 11.6747845,11.0289871 11.6747845,14.2423491" id="Fill-15" fill="#ED4139"></path>
                    <g id="Group-19" transform="translate(7.793103, 0.024892)">
                        <mask id="mask-2" fill="white">
                            <use xlink:href="#path-1"></use>
                        </mask>
                        <g id="Clip-18"></g>
                        <path d="M0.473168103,12.8220905 C0.266271552,12.8220905 0.0766163793,12.6830819 0.022737069,12.4729526 C-0.0419181034,12.2240302 0.107866379,11.9707974 0.355711207,11.9050647 C0.697306034,11.815625 8.70053879,9.62596983 9.153125,0.460021552 C9.16282328,0.204633621 9.38157328,-0.00549568966 9.64019397,0.0203663793 C9.89773707,0.0322198276 10.0960129,0.250969828 10.0820043,0.506357759 C9.59601293,10.3695043 0.678987069,12.784375 0.588469828,12.8059267 C0.548599138,12.8177802 0.511961207,12.8220905 0.473168103,12.8220905" id="Fill-17" fill="#652A33" mask="url(#mask-2)"></path>
                    </g>
                    <path d="M9.57952586,14.0107759 C7.02672414,14.0107759 6.18081897,11.4428879 6.09030172,10.0829741 C6.07198276,9.82758621 6.26594828,9.60775862 6.52241379,9.58943966 C6.77672414,9.57112069 7.00086207,9.76508621 7.01810345,10.0226293 C7.02780172,10.1465517 7.26056034,13.0786638 9.57952586,13.0786638 C9.83706897,13.0786638 10.0450431,13.2877155 10.0450431,13.5452586 C10.0450431,13.8017241 9.83706897,14.0107759 9.57952586,14.0107759" id="Fill-20" fill="#652A33"></path>
                </g>
            </g>
        </g>
    </g>
</svg>