<?xml version="1.0" encoding="UTF-8"?>
<svg width="46px" height="50px" viewBox="0 0 46 50" version="1.1" xmlns="http://www.w3.org/2000/svg" xmlns:xlink="http://www.w3.org/1999/xlink">
    <!-- Generator: Sketch 49.3 (51167) - http://www.bohemiancoding.com/sketch -->
    <title>Group 17</title>
    <desc>Created with Sketch.</desc>
    <defs>
        <polygon id="path-1" points="0.00769113879 0.0183189655 10.0827032 0.0183189655 10.0827032 12.8220905 0.00769113879 12.8220905"></polygon>
    </defs>
    <g id="Page-1" stroke="none" stroke-width="1" fill="none" fill-rule="evenodd">
        <g id="Group-20" transform="translate(-7.000000, -5.000000)">
            <rect id="Rectangle-8" fill="#FFFFFF" x="0" y="0" width="60" height="60"></rect>
            <g id="Group-17" transform="translate(9.000000, 5.000000)">
                <circle id="Oval-8" fill="#FFFFFF" cx="26.25" cy="31.25" r="1"></circle>
                <g id="Group-18" transform="translate(0.000000, 4.000000)">
                    <circle id="Oval-5" fill="#5DB9C5" cx="21" cy="21" r="21"></circle>
                    <circle id="Oval-8" fill="#FFFFFF" cx="25.375" cy="18.375" r="5.25"></circle>
                    <circle id="Oval-9" fill="#FFFFFF" cx="19.25" cy="31.5" r="2.625"></circle>
                    <circle id="Oval-9" fill="#FFFFFF" cx="13.125" cy="10.5" r="2.625"></circle>
                </g>
                <g id="Group-16" transform="translate(28.000000, 0.000000)">
                    <path d="M11.6747845,10.2423491 C11.6747845,13.4567888 9.07025862,16.0613147 5.85689655,16.0613147 C2.6424569,16.0613147 0.0368534483,13.4567888 0.0368534483,10.2423491 C0.0368534483,7.02898707 2.6424569,4.42553879 5.85689655,4.42553879 C9.07025862,4.42553879 11.6747845,7.02898707 11.6747845,10.2423491" id="Fill-15" fill="#ED4139"></path>
                    <g id="Group-19" transform="translate(5.793103, 0.024892)">
                        <mask id="mask-2" fill="white">
                            <use xlink:href="#path-1"></use>
                        </mask>
                        <g id="Clip-18"></g>
                    </g>
                </g>
            </g>
        </g>
    </g>
</svg>